<svg width="40" height="40" viewBox="0 0 40 40" fill="none" xmlns="http://www.w3.org/2000/svg">
<rect width="40" height="40" rx="10" fill="white"/>
<path d="M26.6667 12.5H13.3333C11.5 12.5 10 14 10 15.8333V24.1667C10 26 11.5 27.5 13.3333 27.5H26.6667C28.5 27.5 30 26 30 24.1667V15.8333C30 14 28.5 12.5 26.6667 12.5ZM28 17.3333L21.4167 21.75C21 22 20.5 22.1667 20 22.1667C19.5 22.1667 19 22 18.5833 21.75L12 17.3333C11.6667 17.0833 11.5833 16.5833 11.8333 16.1667C12.0833 15.8333 12.5833 15.75 13 16L19.5833 20.4167C19.8333 20.5833 20.25 20.5833 20.5 20.4167L27.0833 16C27.5 15.75 28 15.8333 28.25 16.25C28.4167 16.5833 28.3333 17.0833 28 17.3333Z" fill="#36427C"/>
</svg>
