<svg width="80" height="64" viewBox="0 0 80 64" fill="none" xmlns="http://www.w3.org/2000/svg">
<path fill-rule="evenodd" clip-rule="evenodd" d="M68.2069 28.9353C68.2069 35.5473 68.2069 45.4655 68.2069 58.6896C68.2069 60.5179 66.7248 62 64.8965 62H5.31034C3.48209 62 2 60.5179 2 58.6896V5.31034C2 3.48209 3.48209 2 5.31034 2H26C27.8282 2 29.3103 3.48209 29.3103 5.31034C29.3103 7.36713 30.9777 9.03448 33.0345 9.03448H64.8965C66.7248 9.03448 68.2069 10.5166 68.2069 12.3448C68.2069 13.4853 68.2069 14.4633 68.2069 15.2788" fill="#E8F0FE"/>
<path d="M68.2069 28.9353C68.2069 35.5473 68.2069 45.4655 68.2069 58.6896C68.2069 60.5179 66.7248 62 64.8965 62H5.31034C3.48209 62 2 60.5179 2 58.6896V5.31034C2 3.48209 3.48209 2 5.31034 2H26C27.8282 2 29.3103 3.48209 29.3103 5.31034C29.3103 7.36713 30.9777 9.03448 33.0345 9.03448H64.8965C66.7248 9.03448 68.2069 10.5166 68.2069 12.3448C68.2069 13.4853 68.2069 14.4633 68.2069 15.2788V28.9353Z" stroke="#1F64E7" stroke-width="2.06896" stroke-linecap="round"/>
<path d="M68.2069 28.9353C68.2069 35.5473 68.2069 45.4655 68.2069 58.6896C68.2069 60.5179 66.7248 62 64.8965 62H5.31034C3.48209 62 2 60.5179 2 58.6896V5.31034C2 3.48209 3.48209 2 5.31034 2H26C27.8282 2 29.3103 3.48209 29.3103 5.31034C29.3103 7.36713 30.9777 9.03448 33.0345 9.03448H64.8965C66.7248 9.03448 68.2069 10.5166 68.2069 12.3448C68.2069 13.4853 68.2069 14.4633 68.2069 15.2788" stroke="#1F64E7" stroke-width="2.06896" stroke-linecap="round"/>
<path fill-rule="evenodd" clip-rule="evenodd" d="M5.19629 8.34323C5.19629 6.6915 6.53528 5.35251 8.18701 5.35251H23.5687C25.2204 5.35251 26.5594 6.6915 26.5594 8.34323C26.5594 10.4067 28.2322 12.0794 30.2956 12.0794H62.0201C63.6718 12.0794 65.0108 13.4184 65.0108 15.0701V56.1127C65.0108 57.7644 63.6718 59.1034 62.0201 59.1034H8.18701C6.53528 59.1034 5.19629 57.7644 5.19629 56.1127V8.34323Z" fill="#E8F0FE"/>
<path fill-rule="evenodd" clip-rule="evenodd" d="M16.1294 18.5518H75.4842C77.3125 18.5518 78.7946 20.0338 78.7946 21.8621C78.7946 22.1501 78.757 22.4368 78.6828 22.7151L68.8621 59.5426C68.4757 60.9917 67.1633 62 65.6635 62H5.23154C3.86035 62 2.74878 60.8884 2.74878 59.5173C2.74878 59.3013 2.77696 59.0862 2.83261 58.8775L4.52527 52.5301L12.9308 21.0092C13.3173 19.56 14.6297 18.5518 16.1294 18.5518Z" fill="#36427C" stroke="#1F64E7" stroke-width="2.06896" stroke-linecap="round"/>
<path fill-rule="evenodd" clip-rule="evenodd" d="M66.725 54.8499L66.3557 56.2323C65.9692 57.6814 64.6569 58.6897 63.1571 58.6897H9.2538C8.33968 58.6897 7.59863 57.9486 7.59863 57.0345C7.59863 56.8905 7.61742 56.7471 7.65452 56.608L16.2648 24.3195C16.6512 22.8704 17.9636 21.8621 19.4634 21.8621L32.6469 21.862C33.3558 40.1221 48.3209 54.7238 66.725 54.8499Z" fill="#02AEEE"/>
</svg>
