<svg width="80" height="58" viewBox="0 0 80 58" fill="none" xmlns="http://www.w3.org/2000/svg">
<path fill-rule="evenodd" clip-rule="evenodd" d="M2.83596 10.8243L63.1762 1.16421C64.3652 0.973859 65.4834 1.78344 65.6737 2.97245C65.6741 2.97483 65.6745 2.97721 65.6749 2.9796L71.5775 40.6498C71.7635 41.8366 70.9544 42.9503 69.7682 43.1402L9.42798 52.8002C8.23896 52.9906 7.12076 52.181 6.93041 50.992C6.93003 50.9896 6.92965 50.9873 6.92927 50.9849L1.02659 13.3147C0.840623 12.1279 1.64974 11.0142 2.83596 10.8243Z" fill="white"/>
<path d="M12.5692 52.1818L10.2556 52.5632C8.66641 52.8251 7.17405 51.6968 6.92229 50.043L1.45329 14.1103C1.20158 12.4566 2.28584 10.9036 3.87506 10.6417L62.1449 1.03775C63.7341 0.77588 65.2265 1.90418 65.4783 3.55793C65.7234 5.16925 65.9189 6.45339 66.0646 7.41037M66.48 10.1397C66.6119 11.0066 66.7274 11.7656 66.8266 12.417" stroke="#1F64E7" stroke-width="1.81693" stroke-linecap="round"/>
<path fill-rule="evenodd" clip-rule="evenodd" d="M5.76086 12.4772L60.8212 3.87871C62.0073 3.69349 63.1199 4.50187 63.3103 5.68712L68.6595 38.9872C68.8505 40.1761 68.0415 41.2947 66.8526 41.4857C66.8494 41.4862 66.8463 41.4867 66.8432 41.4872L11.7828 50.0857C10.5968 50.2709 9.48411 49.4625 9.29371 48.2773L3.94455 14.9772C3.75357 13.7883 4.56255 12.6697 5.75147 12.4787C5.7546 12.4782 5.75773 12.4777 5.76086 12.4772Z" fill="#E8F0FE"/>
<path d="M76.0929 15.7172H19.0412C17.4357 15.7172 16.1342 17.0188 16.1342 18.6243V53.8728C16.1342 55.4784 17.4357 56.7799 19.0412 56.7799H76.0929C77.6985 56.7799 79 55.4784 79 53.8728V18.6243C79 17.0188 77.6985 15.7172 76.0929 15.7172Z" fill="#36427C" stroke="#1F64E7" stroke-width="1.81693"/>
<path d="M78.0915 24.2568H17.0426V34.4316H78.0915V24.2568Z" fill="#02AEEE"/>
<path d="M27.0641 24.2568H21.8339M78.5793 24.2568H30.7284H78.5793ZM74.2186 33.7048H16.9202H74.2186ZM42.8885 47.5135H22.3151H42.8885Z" stroke="#1F64E7" stroke-width="1.81693" stroke-linecap="round" stroke-linejoin="round"/>
</svg>
