<svg width="40" height="40" viewBox="0 0 40 40" fill="none" xmlns="http://www.w3.org/2000/svg">
<rect width="40" height="40" rx="10" fill="white"/>
<g clip-path="url(#clip0_202_2143)">
<path fill-rule="evenodd" clip-rule="evenodd" d="M26.538 14.662C26.538 15.3248 26.0006 15.862 25.338 15.862C24.6753 15.862 24.138 15.3248 24.138 14.662C24.138 13.9992 24.6753 13.462 25.338 13.462C26.0008 13.462 26.538 13.9992 26.538 14.662ZM20 23.3333C18.1591 23.3333 16.6667 21.8409 16.6667 20C16.6667 18.1591 18.1591 16.6667 20 16.6667C21.8409 16.6667 23.3333 18.1591 23.3333 20C23.3333 21.8409 21.8409 23.3333 20 23.3333ZM20 14.8648C17.1639 14.8648 14.8648 17.1639 14.8648 20C14.8648 22.8361 17.1639 25.1352 20 25.1352C22.8361 25.1352 25.1352 22.8361 25.1352 20C25.1352 17.1639 22.8361 14.8648 20 14.8648ZM20 11.8019C22.6702 11.8019 22.9864 11.812 24.0408 11.8602C25.0158 11.9047 25.5453 12.0675 25.8977 12.2045C26.3644 12.3859 26.6975 12.6027 27.0475 12.9527C27.3975 13.3025 27.6142 13.6356 27.7956 14.1025C27.9325 14.4548 28.0955 14.9844 28.14 15.9594C28.1881 17.0139 28.1983 17.3302 28.1983 20.0003C28.1983 22.6705 28.1881 22.9867 28.14 24.0411C28.0955 25.0161 27.9327 25.5456 27.7956 25.898C27.6142 26.3647 27.3975 26.6978 27.0475 27.0478C26.6977 27.3978 26.3645 27.6145 25.8977 27.7959C25.5453 27.9328 25.0158 28.0958 24.0408 28.1403C22.9864 28.1884 22.6702 28.1986 20 28.1986C17.3297 28.1986 17.0134 28.1884 15.9591 28.1403C14.9841 28.0958 14.4545 27.933 14.1022 27.7959C13.6355 27.6145 13.3023 27.3978 12.9523 27.0478C12.6025 26.698 12.3856 26.3648 12.2042 25.898C12.0673 25.5456 11.9044 25.0161 11.8598 24.0411C11.8117 22.9866 11.8016 22.6703 11.8016 20.0003C11.8016 17.3302 11.8117 17.0139 11.8598 15.9594C11.9044 14.9844 12.0672 14.4548 12.2042 14.1025C12.3856 13.6358 12.6023 13.3027 12.9523 12.9527C13.3022 12.6027 13.6353 12.3859 14.1022 12.2045C14.4545 12.0677 14.9841 11.9047 15.9591 11.8602C17.0136 11.812 17.3298 11.8019 20 11.8019ZM20 10C17.2842 10 16.9436 10.0116 15.877 10.0602C14.8127 10.1088 14.0856 10.2778 13.4497 10.525C12.792 10.7805 12.2344 11.1225 11.6784 11.6784C11.1225 12.2344 10.7805 12.792 10.525 13.4497C10.2778 14.0858 10.1088 14.8127 10.0602 15.877C10.0116 16.9436 10 17.2842 10 20C10 22.7158 10.0116 23.0564 10.0602 24.123C10.1088 25.1873 10.2778 25.9142 10.525 26.5503C10.7805 27.208 11.1225 27.7656 11.6784 28.3216C12.2344 28.8775 12.792 29.2194 13.4497 29.475C14.0858 29.7222 14.8127 29.8913 15.877 29.9398C16.9436 29.9884 17.2842 30 20 30C22.7158 30 23.0564 29.9884 24.123 29.9398C25.1873 29.8913 25.9142 29.7222 26.5503 29.475C27.208 29.2194 27.7656 28.8775 28.3216 28.3216C28.8775 27.7656 29.2194 27.208 29.475 26.5503C29.7222 25.9142 29.8913 25.1873 29.9398 24.123C29.9884 23.0564 30 22.7158 30 20C30 17.2842 29.9884 16.9436 29.9398 15.877C29.8913 14.8127 29.7222 14.0858 29.475 13.4497C29.2194 12.792 28.8775 12.2344 28.3216 11.6784C27.7656 11.1225 27.208 10.7806 26.5503 10.525C25.9142 10.2778 25.1873 10.1088 24.123 10.0602C23.0564 10.0116 22.7158 10 20 10Z" fill="#36427C"/>
</g>
<defs>
<clipPath id="clip0_202_2143">
<rect width="20" height="20" fill="white" transform="translate(10 10)"/>
</clipPath>
</defs>
</svg>
