<svg width="62" height="73" viewBox="0 0 62 73" fill="none" xmlns="http://www.w3.org/2000/svg">
<path fill-rule="evenodd" clip-rule="evenodd" d="M31.9216 1.83032L31.9232 1.83161C36.1827 5.33991 40.6895 7.29824 45.9893 9.53261C49.9309 11.1944 53.5848 12.2612 56.951 12.7331C57.3762 12.7927 57.9268 12.8459 58.6028 12.8926C59.9522 12.9859 61 14.1272 61 15.5038V40.57C61 48.7744 56.7508 56.3741 49.8101 60.6179L49.5669 60.7645C37.3418 68.0319 31.199 71.6834 31.1387 71.7188C31.0482 71.7721 30.961 71.7721 30.8969 71.7466C30.8542 71.7296 24.6996 68.0689 12.4331 60.7645C5.34855 56.5507 1 48.8698 1 40.57V15.3157C1 14.0103 1.94521 12.9045 3.21549 12.7238C8.47347 11.9758 12.7385 10.9121 16.0107 9.53261C21.3327 7.28886 25.8127 5.36001 30.0857 1.83161C30.6206 1.38994 31.3862 1.3894 31.9216 1.83032Z" fill="#36427C" stroke="#1F64E7" stroke-width="1.97368"/>
<path fill-rule="evenodd" clip-rule="evenodd" d="M54.6843 50.9588L54.5939 51.1203C52.887 54.1504 50.4398 56.7466 47.4163 58.6161L47.2007 58.7476C36.3661 65.2611 30.9221 68.5338 30.8686 68.5656C30.7884 68.6133 30.7111 68.6133 30.6543 68.5904C30.6165 68.5752 25.1619 65.2942 14.2906 58.7476C8.0119 54.9709 4.15796 48.0867 4.15796 40.648V18.2996C4.15796 16.969 5.08944 15.842 6.3409 15.6585C10.9002 14.9899 14.607 14.0471 17.4613 12.8302C18.8296 12.2468 20.135 11.6311 21.3914 10.9737C23.6874 30.2742 37.0707 45.9866 54.6843 50.9588Z" fill="#02AEEE"/>
<path d="M57.0527 23.6253C57.0527 30.3698 57.0527 36.1572 57.0527 40.9875C57.0527 43.3114 56.5264 45.6752 55.4738 48.079M57.0143 20.1366L57.0143 17.2895" stroke="#75A4FE" stroke-width="1.97368" stroke-linecap="round" stroke-linejoin="round"/>
<path fill-rule="evenodd" clip-rule="evenodd" d="M19.1762 36.5313C18.2105 35.6394 16.7124 35.7079 15.8302 36.6842C14.948 37.6605 15.0158 39.1748 15.9815 40.0666L27.1281 50.3597C28.4802 51.6083 30.5774 51.5124 31.8125 50.1456C31.8642 50.0876 31.8642 50.0876 31.914 50.0279L47.821 30.6881C48.6573 29.6714 48.5199 28.1619 47.5141 27.3165C46.5083 26.4711 45.015 26.61 44.1787 27.6268L29.2236 45.8093L19.1762 36.5313Z" fill="white" stroke="#1F64E7" stroke-width="1.97368" stroke-linecap="round"/>
</svg>
