<svg width="73" height="68" viewBox="0 0 73 68" fill="none" xmlns="http://www.w3.org/2000/svg">
<path d="M8.17891 67.6953H61.6478C65.6136 67.6953 68.8279 64.4802 68.8279 60.5152V46.7636V32.0045V28.9603V23.2288C68.8279 19.2633 65.6136 16.0486 61.6478 16.0486H8.05326C5.01878 16.0486 2.31202 14.1411 1.29141 11.2834L0.998779 10.4641V60.5152C0.998779 64.4802 4.21341 67.6953 8.17891 67.6953Z" fill="#36427C"/>
<path fill-rule="evenodd" clip-rule="evenodd" d="M0.816159 9.4836C1.28861 9.39584 1.75652 9.6576 1.929 10.106L2.15326 10.6891C3.0716 13.0769 5.36573 14.6525 7.92401 14.6525H61.6472C66.1635 14.6525 69.8246 18.3137 69.8246 22.8299V28.9603V31.2067C69.8246 31.7574 69.3786 32.2039 68.8273 32.2039C68.2769 32.2039 67.8301 31.7574 67.8301 31.2067V28.9603V22.8299C67.8301 19.4152 65.0626 16.647 61.6472 16.647H7.92401C5.63682 16.647 3.50927 15.6947 1.99546 14.1022V57.3241C1.99546 60.7387 4.76364 63.507 8.17835 63.507H61.6472C65.0626 63.507 67.8301 60.7387 67.8301 57.3241V47.1626C67.8301 46.6122 68.2769 46.1654 68.8273 46.1654C69.3786 46.1654 69.8246 46.6122 69.8246 47.1626V57.3241C69.8246 61.8404 66.1635 65.5015 61.6472 65.5015H8.17835C3.66213 65.5015 0.000976562 61.8404 0.000976562 57.3241V10.4641C0.000976562 9.9835 0.343706 9.57128 0.816159 9.4836Z" fill="#36427C"/>
<mask id="mask0_202_2071" style="mask-type:alpha" maskUnits="userSpaceOnUse" x="0" y="9" width="70" height="57">
<path fill-rule="evenodd" clip-rule="evenodd" d="M0.815182 9.48339C1.28764 9.39563 1.75554 9.65739 1.92803 10.1058L2.15229 10.6889C3.07062 13.0766 5.36476 14.6523 7.92304 14.6523H61.6462C66.1625 14.6523 69.8236 18.3134 69.8236 22.8297V28.9601V31.2065C69.8236 31.7572 69.3776 32.2037 68.8264 32.2037C68.2759 32.2037 67.8291 31.7572 67.8291 31.2065V28.9601V22.8297C67.8291 19.415 65.0616 16.6468 61.6462 16.6468H7.92304C5.63585 16.6468 3.50829 15.6945 1.99448 14.102V57.3239C1.99448 60.7385 4.76266 63.5068 8.17738 63.5068H61.6462C65.0616 63.5068 67.8291 60.7385 67.8291 57.3239V47.1624C67.8291 46.6119 68.2759 46.1652 68.8264 46.1652C69.3776 46.1652 69.8236 46.6119 69.8236 47.1624V57.3239C69.8236 61.8402 66.1625 65.5013 61.6462 65.5013H8.17738C3.66115 65.5013 0 61.8402 0 57.3239V10.4639C0 9.98329 0.34273 9.57106 0.815182 9.48339Z" fill="#1F64E7"/>
</mask>
<g mask="url(#mask0_202_2071)">
<path d="M1.92788 10.1059L0.0663075 10.8219L1.92788 10.1059ZM0.815036 9.48344L0.450925 7.52246L0.815036 9.48344ZM2.15214 10.689L4.01363 9.97296L2.15214 10.689ZM1.99434 14.102L3.43993 12.7279L-0.000146747 9.10888V14.102H1.99434ZM3.78937 9.38994C3.27192 8.04438 1.86836 7.25927 0.450925 7.52246L1.17915 11.4444C0.7067 11.5321 0.23879 11.2704 0.0663075 10.8219L3.78937 9.38994ZM4.01363 9.97296L3.78937 9.38994L0.0663075 10.8219L0.290571 11.4049L4.01363 9.97296ZM7.92289 12.6579C6.18985 12.6579 4.63575 11.5905 4.01363 9.97296L0.290571 11.4049C1.50521 14.563 4.53929 16.6468 7.92289 16.6468V12.6579ZM61.6461 12.6579H7.92289V16.6468H61.6461V12.6579ZM71.818 22.8297C71.818 17.212 67.2642 12.6579 61.6461 12.6579V16.6468C65.0615 16.6468 67.829 19.415 67.829 22.8297H71.818ZM71.818 28.9601V22.8297H67.829V28.9601H71.818ZM71.818 31.2065V28.9601H67.829V31.2065H71.818ZM68.8262 34.1983C70.4785 34.1983 71.818 32.8588 71.818 31.2065H67.829C67.829 30.6557 68.2758 30.2093 68.8262 30.2093V34.1983ZM65.8345 31.2065C65.8345 32.8588 67.174 34.1983 68.8262 34.1983V30.2093C69.3775 30.2093 69.8235 30.6557 69.8235 31.2065H65.8345ZM65.8345 28.9601V31.2065H69.8235V28.9601H65.8345ZM65.8345 22.8297V28.9601H69.8235V22.8297H65.8345ZM61.6461 18.6413C63.9597 18.6413 65.8345 20.5165 65.8345 22.8297H69.8235C69.8235 18.3135 66.1624 14.6523 61.6461 14.6523V18.6413ZM7.92289 18.6413H61.6461V14.6523H7.92289V18.6413ZM0.548738 15.4761C2.43073 17.456 5.07717 18.6413 7.92289 18.6413V14.6523C6.19415 14.6523 4.58556 13.9331 3.43993 12.7279L0.548738 15.4761ZM3.98882 57.324V14.102H-0.000146747V57.324H3.98882ZM8.17723 61.5124C5.86403 61.5124 3.98882 59.6368 3.98882 57.324H-0.000146747C-0.000146747 61.8403 3.661 65.5013 8.17723 65.5013V61.5124ZM61.6461 61.5124H8.17723V65.5013H61.6461V61.5124ZM65.8345 57.324C65.8345 59.6368 63.9597 61.5124 61.6461 61.5124V65.5013C66.1624 65.5013 69.8235 61.8403 69.8235 57.324H65.8345ZM65.8345 47.1625V57.324H69.8235V47.1625H65.8345ZM68.8262 44.1708C67.174 44.1708 65.8345 45.5102 65.8345 47.1625H69.8235C69.8235 47.713 69.3775 48.1597 68.8262 48.1597V44.1708ZM71.818 47.1625C71.818 45.5102 70.4785 44.1708 68.8262 44.1708V48.1597C68.2758 48.1597 67.829 47.713 67.829 47.1625H71.818ZM71.818 57.324V47.1625H67.829V57.324H71.818ZM61.6461 67.4958C67.2642 67.4958 71.818 62.9412 71.818 57.324H67.829C67.829 60.7385 65.0615 63.5069 61.6461 63.5069V67.4958ZM8.17723 67.4958H61.6461V63.5069H8.17723V67.4958ZM-1.99463 57.324C-1.99463 62.9412 2.55949 67.4958 8.17723 67.4958V63.5069C4.76252 63.5069 1.99434 60.7385 1.99434 57.324H-1.99463ZM-1.99463 10.4639V57.324H1.99434V10.4639H-1.99463ZM0.450925 7.52246C-0.966514 7.78565 -1.99463 9.02224 -1.99463 10.4639H1.99434C1.99434 10.9444 1.65161 11.3567 1.17915 11.4444L0.450925 7.52246Z" fill="#586292"/>
</g>
<path d="M0.998779 11.0624C0.998779 8.52894 3.05262 6.4751 5.58609 6.4751H54.052C58.0178 6.4751 61.2321 9.68972 61.2321 13.6552V15.6497H5.58609C3.05262 15.6497 0.998779 13.5959 0.998779 11.0624Z" fill="#E8F0FE" stroke="#586292" stroke-width="1.99448"/>
<path fill-rule="evenodd" clip-rule="evenodd" d="M22.1037 20.0375H8.57716C6.81475 20.0375 5.38599 21.4663 5.38599 23.2287V57.5338C5.38599 59.2961 6.81475 60.7249 8.57716 60.7249H62.0293C63.7916 60.7249 65.2205 59.2961 65.2205 57.5338V53.6948C56.7256 53.3876 47.9426 50.5587 40.1442 45.0683C30.9361 38.5846 24.7588 29.5581 22.1037 20.0375Z" fill="#02AEEE"/>
<path d="M54.0508 40.7803C54.0508 36.8145 57.2651 33.6002 61.2309 33.6002H70.0066C71.3286 33.6002 72.4 34.6716 72.4 35.9935V45.5671C72.4 46.889 71.3286 47.9604 70.0066 47.9604H61.2309C57.2651 47.9604 54.0508 44.7461 54.0508 40.7803Z" fill="white"/>
<mask id="mask1_202_2071" style="mask-type:alpha" maskUnits="userSpaceOnUse" x="54" y="33" width="19" height="15">
<path d="M54.0508 40.7803C54.0508 36.8145 57.2651 33.6002 61.2309 33.6002H70.0066C71.3286 33.6002 72.4 34.6716 72.4 35.9935V45.5671C72.4 46.889 71.3286 47.9604 70.0066 47.9604H61.2309C57.2651 47.9604 54.0508 44.7461 54.0508 40.7803Z" fill="#1F64E7"/>
</mask>
<g mask="url(#mask1_202_2071)">
<path d="M61.231 35.5946H70.0067V31.6056H61.231V35.5946ZM70.4056 35.9935V45.567H74.3946V35.9935H70.4056ZM70.0067 45.9659H61.231V49.9549H70.0067V45.9659ZM61.231 45.9659C58.3669 45.9659 56.0454 43.6443 56.0454 40.7802H52.0564C52.0564 45.847 56.1642 49.9549 61.231 49.9549V45.9659ZM70.4056 45.567C70.4056 45.7872 70.2269 45.9659 70.0067 45.9659V49.9549C72.4304 49.9549 74.3946 47.9907 74.3946 45.567H70.4056ZM70.0067 35.5946C70.2269 35.5946 70.4056 35.7733 70.4056 35.9935H74.3946C74.3946 33.5701 72.4304 31.6056 70.0067 31.6056V35.5946ZM61.231 31.6056C56.1642 31.6056 52.0564 35.7135 52.0564 40.7802H56.0454C56.0454 37.9162 58.3669 35.5946 61.231 35.5946V31.6056Z" fill="#586292"/>
</g>
<path d="M61.232 43.1737C62.5539 43.1737 63.6254 42.1022 63.6254 40.7803C63.6254 39.4583 62.5539 38.3869 61.232 38.3869C59.9101 38.3869 58.8386 39.4583 58.8386 40.7803C58.8386 42.1022 59.9101 43.1737 61.232 43.1737Z" stroke="#75A4FE" stroke-width="1.99448"/>
<path d="M7.97864 22.2316H62.6274" stroke="white" stroke-width="1.99448" stroke-linecap="round" stroke-dasharray="3.99 3.99"/>
<path d="M7.97864 58.1322H62.6274" stroke="#02AEEE" stroke-width="1.99448" stroke-linecap="round" stroke-dasharray="3.99 3.99"/>
<path d="M45.3142 1.19456L9.37524 14.4158L53.6807 14.6931L49.4109 3.08772C48.803 1.43366 46.9688 0.586083 45.3142 1.19456Z" fill="white"/>
<path fill-rule="evenodd" clip-rule="evenodd" d="M53.5294 14.6923L51.6578 11.2619H19.7461L11.3981 14.4285L53.5294 14.6923Z" fill="#E8F0FE"/>
<path d="M9.03062 13.4799C8.51373 13.6701 8.24886 14.2432 8.43906 14.7601C8.62917 15.277 9.20239 15.5419 9.71928 15.3518L9.03062 13.4799ZM52.7446 15.0375C52.9344 15.5544 53.508 15.8193 54.025 15.6291C54.5412 15.4389 54.8061 14.8657 54.6162 14.3488L52.7446 15.0375ZM9.71928 15.3518L45.6586 2.13049L44.9701 0.258708L9.03062 13.4799L9.71928 15.3518ZM48.4748 3.43209L52.7446 15.0375L54.6162 14.3488L50.3472 2.74343L48.4748 3.43209ZM45.6586 2.13049C46.7954 1.71221 48.0567 2.29491 48.4748 3.43209L50.3472 2.74343C49.5486 0.572478 47.1409 -0.539962 44.9701 0.258708L45.6586 2.13049Z" fill="#586292"/>
</svg>
