<svg width="40" height="40" viewBox="0 0 40 40" fill="none" xmlns="http://www.w3.org/2000/svg">
<rect width="40" height="40" rx="10" fill="white"/>
<path d="M30.3676 14.3775C29.6009 14.7183 28.7758 14.9482 27.9101 15.051C28.794 14.5219 29.4718 13.6837 29.7914 12.6838C28.9647 13.1744 28.0494 13.5304 27.0745 13.7226C26.2943 12.8912 25.1822 12.3713 23.9515 12.3713C21.5889 12.3713 19.6733 14.2869 19.6733 16.65C19.6733 16.9848 19.711 17.3112 19.7843 17.6249C16.2283 17.4462 13.0753 15.7432 10.965 13.1545C10.5967 13.7861 10.3859 14.521 10.3859 15.3059C10.3859 16.7901 11.1411 18.0999 12.2892 18.867C11.5881 18.8445 10.9281 18.6519 10.3511 18.3314C10.3507 18.3492 10.3507 18.3674 10.3507 18.3856C10.3507 20.4583 11.8256 22.1872 13.7831 22.5809C13.4241 22.6782 13.0461 22.7307 12.6558 22.7307C12.3797 22.7307 12.1118 22.704 11.8506 22.6537C12.3954 24.3533 13.9753 25.5907 15.8473 25.625C14.383 26.7727 12.5385 27.4568 10.5336 27.4568C10.1886 27.4568 9.8478 27.4365 9.51294 27.3967C11.4069 28.6112 13.6557 29.319 16.0716 29.319C23.9418 29.319 28.245 22.7997 28.245 17.1457C28.245 16.9603 28.2412 16.7753 28.2331 16.5915C29.0688 15.9896 29.7944 15.2356 30.3676 14.3775Z" fill="#36427C"/>
</svg>
